<mxfile host="app.diagrams.net" modified="2023-03-23T15:06:30.746Z" agent="5.0 (Windows NT 10.0; Win64; x64) AppleWebKit/537.36 (KHTML, like Gecko) Chrome/111.0.0.0 Safari/537.36" etag="mB9UBcXnIWY6iatFQuH2" version="21.0.10" type="github">
  <diagram name="PÃ¡gina-1" id="33MB7N0KBTs7MI313ONX">
    <mxGraphModel dx="794" dy="740" grid="1" gridSize="10" guides="1" tooltips="1" connect="1" arrows="1" fold="1" page="1" pageScale="1" pageWidth="827" pageHeight="1169" math="0" shadow="0">
      <root>
        <mxCell id="0" />
        <mxCell id="1" parent="0" />
        <mxCell id="ZN_su33o2JWfBYB75ijY-1" value="&lt;font style=&quot;vertical-align: inherit;&quot;&gt;&lt;font style=&quot;vertical-align: inherit;&quot;&gt;id-usuario&lt;/font&gt;&lt;/font&gt;" style="ellipse;whiteSpace=wrap;html=1;" vertex="1" parent="1">
          <mxGeometry x="127" y="250" width="120" height="80" as="geometry" />
        </mxCell>
        <mxCell id="ZN_su33o2JWfBYB75ijY-9" value="" style="edgeStyle=orthogonalEdgeStyle;rounded=0;orthogonalLoop=1;jettySize=auto;html=1;" edge="1" parent="1" source="ZN_su33o2JWfBYB75ijY-2" target="ZN_su33o2JWfBYB75ijY-3">
          <mxGeometry relative="1" as="geometry">
            <Array as="points">
              <mxPoint x="440" y="320" />
              <mxPoint x="440" y="360" />
            </Array>
          </mxGeometry>
        </mxCell>
        <mxCell id="ZN_su33o2JWfBYB75ijY-14" value="" style="edgeStyle=orthogonalEdgeStyle;rounded=0;orthogonalLoop=1;jettySize=auto;html=1;" edge="1" parent="1" source="ZN_su33o2JWfBYB75ijY-2" target="ZN_su33o2JWfBYB75ijY-8">
          <mxGeometry relative="1" as="geometry">
            <Array as="points">
              <mxPoint x="255" y="260" />
            </Array>
          </mxGeometry>
        </mxCell>
        <mxCell id="ZN_su33o2JWfBYB75ijY-15" value="" style="edgeStyle=orthogonalEdgeStyle;rounded=0;orthogonalLoop=1;jettySize=auto;html=1;" edge="1" parent="1" source="ZN_su33o2JWfBYB75ijY-2" target="ZN_su33o2JWfBYB75ijY-6">
          <mxGeometry relative="1" as="geometry">
            <Array as="points">
              <mxPoint x="490" y="270" />
            </Array>
          </mxGeometry>
        </mxCell>
        <mxCell id="ZN_su33o2JWfBYB75ijY-16" value="" style="edgeStyle=orthogonalEdgeStyle;rounded=0;orthogonalLoop=1;jettySize=auto;html=1;" edge="1" parent="1" source="ZN_su33o2JWfBYB75ijY-2" target="ZN_su33o2JWfBYB75ijY-1">
          <mxGeometry relative="1" as="geometry" />
        </mxCell>
        <mxCell id="ZN_su33o2JWfBYB75ijY-2" value="&lt;font style=&quot;vertical-align: inherit;&quot;&gt;&lt;font style=&quot;vertical-align: inherit;&quot;&gt;usuario&lt;/font&gt;&lt;/font&gt;" style="rounded=0;whiteSpace=wrap;html=1;" vertex="1" parent="1">
          <mxGeometry x="310" y="260" width="120" height="60" as="geometry" />
        </mxCell>
        <mxCell id="ZN_su33o2JWfBYB75ijY-3" value="&lt;font style=&quot;vertical-align: inherit;&quot;&gt;&lt;font style=&quot;vertical-align: inherit;&quot;&gt;id-usuario&lt;/font&gt;&lt;/font&gt;" style="ellipse;whiteSpace=wrap;html=1;" vertex="1" parent="1">
          <mxGeometry x="470" y="330" width="120" height="60" as="geometry" />
        </mxCell>
        <mxCell id="ZN_su33o2JWfBYB75ijY-18" value="" style="edgeStyle=orthogonalEdgeStyle;rounded=0;orthogonalLoop=1;jettySize=auto;html=1;" edge="1" parent="1" source="ZN_su33o2JWfBYB75ijY-4" target="ZN_su33o2JWfBYB75ijY-2">
          <mxGeometry relative="1" as="geometry">
            <Array as="points">
              <mxPoint x="340" y="320" />
              <mxPoint x="340" y="320" />
            </Array>
          </mxGeometry>
        </mxCell>
        <mxCell id="ZN_su33o2JWfBYB75ijY-4" value="&lt;font style=&quot;vertical-align: inherit;&quot;&gt;&lt;font style=&quot;vertical-align: inherit;&quot;&gt;A.materno&lt;/font&gt;&lt;/font&gt;" style="ellipse;whiteSpace=wrap;html=1;" vertex="1" parent="1">
          <mxGeometry x="300" y="380" width="120" height="60" as="geometry" />
        </mxCell>
        <mxCell id="ZN_su33o2JWfBYB75ijY-5" value="&lt;font style=&quot;vertical-align: inherit;&quot;&gt;&lt;font style=&quot;vertical-align: inherit;&quot;&gt;id-plantel&lt;/font&gt;&lt;/font&gt;" style="ellipse;whiteSpace=wrap;html=1;" vertex="1" parent="1">
          <mxGeometry x="490" y="260" width="120" height="60" as="geometry" />
        </mxCell>
        <mxCell id="ZN_su33o2JWfBYB75ijY-6" value="&lt;font style=&quot;vertical-align: inherit;&quot;&gt;&lt;font style=&quot;vertical-align: inherit;&quot;&gt;pasword&lt;/font&gt;&lt;/font&gt;" style="ellipse;whiteSpace=wrap;html=1;" vertex="1" parent="1">
          <mxGeometry x="430" y="180" width="120" height="60" as="geometry" />
        </mxCell>
        <mxCell id="ZN_su33o2JWfBYB75ijY-7" value="&lt;font style=&quot;vertical-align: inherit;&quot;&gt;&lt;font style=&quot;vertical-align: inherit;&quot;&gt;email&lt;/font&gt;&lt;/font&gt;" style="ellipse;whiteSpace=wrap;html=1;" vertex="1" parent="1">
          <mxGeometry x="330" y="160" width="110" height="50" as="geometry" />
        </mxCell>
        <mxCell id="ZN_su33o2JWfBYB75ijY-8" value="&lt;font style=&quot;vertical-align: inherit;&quot;&gt;&lt;font style=&quot;vertical-align: inherit;&quot;&gt;telefono&lt;/font&gt;&lt;/font&gt;" style="ellipse;whiteSpace=wrap;html=1;" vertex="1" parent="1">
          <mxGeometry x="200" y="170" width="110" height="50" as="geometry" />
        </mxCell>
        <mxCell id="ZN_su33o2JWfBYB75ijY-10" value="&lt;font style=&quot;vertical-align: inherit;&quot;&gt;&lt;font style=&quot;vertical-align: inherit;&quot;&gt;A.paterno&lt;/font&gt;&lt;/font&gt;" style="ellipse;whiteSpace=wrap;html=1;" vertex="1" parent="1">
          <mxGeometry x="430" y="400" width="120" height="60" as="geometry" />
        </mxCell>
        <mxCell id="ZN_su33o2JWfBYB75ijY-19" value="&lt;font style=&quot;vertical-align: inherit;&quot;&gt;&lt;font style=&quot;vertical-align: inherit;&quot;&gt;nombre&lt;/font&gt;&lt;/font&gt;" style="ellipse;whiteSpace=wrap;html=1;" vertex="1" parent="1">
          <mxGeometry x="160" y="360" width="120" height="60" as="geometry" />
        </mxCell>
        <mxCell id="ZN_su33o2JWfBYB75ijY-20" value="" style="endArrow=classic;html=1;rounded=0;entryX=0.5;entryY=0;entryDx=0;entryDy=0;" edge="1" parent="1" target="ZN_su33o2JWfBYB75ijY-2">
          <mxGeometry width="50" height="50" relative="1" as="geometry">
            <mxPoint x="380" y="210" as="sourcePoint" />
            <mxPoint x="430" y="160" as="targetPoint" />
          </mxGeometry>
        </mxCell>
        <mxCell id="ZN_su33o2JWfBYB75ijY-21" value="" style="endArrow=classic;html=1;rounded=0;exitX=0;exitY=0;exitDx=0;exitDy=0;entryX=0.75;entryY=1;entryDx=0;entryDy=0;" edge="1" parent="1" source="ZN_su33o2JWfBYB75ijY-10" target="ZN_su33o2JWfBYB75ijY-2">
          <mxGeometry width="50" height="50" relative="1" as="geometry">
            <mxPoint x="380" y="510" as="sourcePoint" />
            <mxPoint x="430" y="460" as="targetPoint" />
          </mxGeometry>
        </mxCell>
        <mxCell id="ZN_su33o2JWfBYB75ijY-22" value="" style="endArrow=classic;html=1;rounded=0;exitX=0.667;exitY=0;exitDx=0;exitDy=0;exitPerimeter=0;entryX=0;entryY=1;entryDx=0;entryDy=0;" edge="1" parent="1" source="ZN_su33o2JWfBYB75ijY-19" target="ZN_su33o2JWfBYB75ijY-2">
          <mxGeometry width="50" height="50" relative="1" as="geometry">
            <mxPoint x="380" y="510" as="sourcePoint" />
            <mxPoint x="430" y="460" as="targetPoint" />
          </mxGeometry>
        </mxCell>
        <mxCell id="ZN_su33o2JWfBYB75ijY-23" value="" style="endArrow=classic;html=1;rounded=0;exitX=0;exitY=0.5;exitDx=0;exitDy=0;entryX=1;entryY=0.75;entryDx=0;entryDy=0;" edge="1" parent="1" source="ZN_su33o2JWfBYB75ijY-5" target="ZN_su33o2JWfBYB75ijY-2">
          <mxGeometry width="50" height="50" relative="1" as="geometry">
            <mxPoint x="380" y="510" as="sourcePoint" />
            <mxPoint x="430" y="460" as="targetPoint" />
          </mxGeometry>
        </mxCell>
      </root>
    </mxGraphModel>
  </diagram>
</mxfile>
